<svg width="20" height="15" viewBox="0 0 20 15" fill="none" xmlns="http://www.w3.org/2000/svg">
<rect width="20" height="15" fill="black" fill-opacity="0"/>
<path fill-rule="evenodd" clip-rule="evenodd" d="M0 7.44141C0 7.44141 3.33398 0 10 0C16.666 0 20 7.4082 20 7.4082C20 7.4082 16.666 14.8145 10 14.8145C3.33398 14.8145 0 7.44141 0 7.44141ZM13.0312 2.33203C12.127 1.91016 11.1152 1.64648 10 1.64648C5.59375 1.64648 2.8125 5.7832 1.875 7.4375C2.8125 9.07812 5.59375 13.1699 10 13.1699C14.4043 13.1699 17.1855 9.05664 18.123 7.4082C17.4238 6.17969 15.6973 3.57422 13.0312 2.33203Z" fill="#C4C4C4"/>
<path fill-rule="evenodd" clip-rule="evenodd" d="M6.66797 7.4082C6.66797 5.58984 8.16016 4.11523 10.002 4.11523C11.8418 4.11523 13.334 5.58984 13.334 7.4082C13.334 9.22656 11.8418 10.6992 10.002 10.6992C8.16016 10.6992 6.66797 9.22656 6.66797 7.4082ZM11.668 7.4082C11.668 6.5 10.9199 5.76172 10 5.76172C9.08203 5.76172 8.33398 6.5 8.33398 7.4082C8.33398 8.31445 9.08203 9.05469 10 9.05469C10.9199 9.05469 11.668 8.31445 11.668 7.4082Z" fill="#C4C4C4"/>
</svg>
