<svg width="78" height="96" viewBox="0 0 78 96" fill="none" xmlns="http://www.w3.org/2000/svg">
<path d="M71.1431 10.2852H66.8574V13.7137H71.1431C73.0365 13.7137 74.5716 15.2488 74.5716 17.1423V89.142C74.5716 91.0354 73.0365 92.5705 71.1431 92.5705H21.4293C19.5359 92.5705 18.0008 91.0354 18.0008 89.142H14.5723C14.5723 92.9288 17.6425 95.9991 21.4293 95.9991H71.1431C74.9299 95.9991 78.0002 92.9288 78.0002 89.142V17.1423C78.0002 13.3554 74.9299 10.2852 71.1431 10.2852Z" fill="#D8E8E8"/>
<path d="M56.5708 0H6.85707C3.08568 0 0 3.0857 0 6.85711V78.8568C0 82.6282 3.08568 85.7139 6.85707 85.7139H56.5708C60.3422 85.7139 63.4279 82.6282 63.4279 78.8568V6.85711C63.4279 3.0857 60.3422 0 56.5708 0ZM59.9994 78.8568C59.9994 80.7477 58.4617 82.2854 56.5708 82.2854H6.85707C4.96623 82.2854 3.42853 80.7477 3.42853 78.8568V6.85711C3.42853 4.96626 4.96623 3.42856 6.85707 3.42856H56.5708C58.4617 3.42856 59.9994 4.96626 59.9994 6.85711V78.8568Z" fill="#D8E8E8"/>
<path d="M51.4315 16.0731H12.0033C11.0571 16.0731 10.2891 15.3051 10.2891 14.3588C10.2891 13.4125 11.0571 12.6445 12.0033 12.6445H51.4315C52.3778 12.6445 53.1457 13.4125 53.1457 14.3588C53.1457 15.3051 52.3778 16.0731 51.4315 16.0731Z" fill="#D8E8E8"/>
<path d="M51.4315 24.6414H12.0033C11.0571 24.6414 10.2891 23.8735 10.2891 22.9272C10.2891 21.9809 11.0571 21.2129 12.0033 21.2129H51.4315C52.3778 21.2129 53.1457 21.9809 53.1457 22.9272C53.1457 23.8735 52.3778 24.6414 51.4315 24.6414Z" fill="#D8E8E8"/>
<path d="M26.5746 33.2137H12.0033C11.0571 33.2137 10.2891 32.4457 10.2891 31.4994C10.2891 30.5532 11.0571 29.7852 12.0033 29.7852H26.5746C27.5209 29.7852 28.2889 30.5532 28.2889 31.4994C28.2889 32.4457 27.5209 33.2137 26.5746 33.2137Z" fill="#D8E8E8"/>
<path d="M26.5746 41.784H12.0033C11.0571 41.784 10.2891 41.016 10.2891 40.0697C10.2891 39.1235 11.0571 38.3555 12.0033 38.3555H26.5746C27.5209 38.3555 28.2889 39.1235 28.2889 40.0697C28.2889 41.016 27.5209 41.784 26.5746 41.784Z" fill="#D8E8E8"/>
<path d="M26.5746 50.3582H12.0033C11.0571 50.3582 10.2891 49.5902 10.2891 48.644C10.2891 47.6977 11.0571 46.9297 12.0033 46.9297H26.5746C27.5209 46.9297 28.2889 47.6977 28.2889 48.644C28.2889 49.5902 27.5209 50.3582 26.5746 50.3582Z" fill="#D8E8E8"/>
<path d="M51.4315 58.9286H12.0033C11.0571 58.9286 10.2891 58.1606 10.2891 57.2143C10.2891 56.268 11.0571 55.5 12.0033 55.5H51.4315C52.3778 55.5 53.1457 56.268 53.1457 57.2143C53.1457 58.1606 52.3778 58.9286 51.4315 58.9286Z" fill="#D8E8E8"/>
<path d="M51.4315 67.4969H12.0033C11.0571 67.4969 10.2891 66.7289 10.2891 65.7826C10.2891 64.8364 11.0571 64.0684 12.0033 64.0684H51.4315C52.3778 64.0684 53.1457 64.8364 53.1457 65.7826C53.1457 66.7289 52.3778 67.4969 51.4315 67.4969Z" fill="#D8E8E8"/>
<path d="M51.4315 76.0731H12.0033C11.0571 76.0731 10.2891 75.3051 10.2891 74.3588C10.2891 73.4125 11.0571 72.6445 12.0033 72.6445H51.4315C52.3778 72.6445 53.1457 73.4125 53.1457 74.3588C53.1457 75.3051 52.3778 76.0731 51.4315 76.0731Z" fill="#D8E8E8"/>
<path d="M49.7107 29.7852H35.1395C33.2538 29.7852 31.7109 31.328 31.7109 33.2137V46.9279C31.7109 48.8136 33.2538 50.3565 35.1395 50.3565H49.7107C51.5964 50.3565 53.1393 48.8136 53.1393 46.9279V33.2137C53.1393 31.328 51.5964 29.7852 49.7107 29.7852Z" fill="#D8E8E8"/>
</svg>
