<svg width="160" height="160" viewBox="0 0 160 160" fill="none" xmlns="http://www.w3.org/2000/svg">
<g filter="url(#filter0_d)">
<rect x="40" y="30" width="80" height="80" rx="40" fill="#D8E8E8"/>
</g>
<path d="M84.0217 72.0806C84.0217 73.3495 83.6763 74.3645 83.0086 75.1258C82.3409 75.8872 81.466 76.2563 80.4069 76.2563C79.3248 76.2563 78.4268 75.8641 77.7131 75.1028C76.9993 74.3415 76.631 73.3264 76.631 72.0806V59H70V72.0806C70 74.0416 70.4375 75.7257 71.2894 77.1791C72.1412 78.6325 73.3615 79.7629 74.9272 80.5473C76.4928 81.3547 78.3117 81.7469 80.3839 81.7469C82.433 81.7469 84.2289 81.3547 85.7946 80.5473C87.3372 79.7398 88.5344 78.6325 89.3633 77.1791C90.1922 75.7257 90.6296 74.0185 90.6296 72.0806V59H84.0217V72.0806Z" fill="white"/>
<path d="M120.918 19C118.202 19 115.856 19.9959 113.922 21.9461C111.988 23.8963 111 26.2614 111 29C111 31.7386 111.988 34.1037 113.922 36.0539C115.856 38.0041 118.202 39 120.918 39C123.675 39 126.062 38.0041 128.037 36.0539C130.012 34.1037 131 31.7386 131 29C131 26.2614 130.012 23.8963 128.037 21.9461C126.062 19.9959 123.675 19 120.918 19ZM124.374 32.2365C123.428 33.1494 122.235 33.6058 120.918 33.6058C119.601 33.6058 118.49 33.1494 117.584 32.2365C116.638 31.3237 116.185 30.2448 116.185 29C116.185 27.7552 116.638 26.6763 117.584 25.7635C118.531 24.8506 119.642 24.3942 120.918 24.3942C122.276 24.3942 123.428 24.8506 124.374 25.7635C125.321 26.6763 125.815 27.7552 125.815 29C125.815 30.2448 125.362 31.3237 124.374 32.2365Z" fill="#D8E8E8"/>
<defs>
<filter id="filter0_d" x="0" y="0" width="160" height="160" filterUnits="userSpaceOnUse" color-interpolation-filters="sRGB">
<feFlood flood-opacity="0" result="BackgroundImageFix"/>
<feColorMatrix in="SourceAlpha" type="matrix" values="0 0 0 0 0 0 0 0 0 0 0 0 0 0 0 0 0 0 127 0"/>
<feOffset dy="10"/>
<feGaussianBlur stdDeviation="20"/>
<feColorMatrix type="matrix" values="0 0 0 0 0.830712 0 0 0 0 0.888032 0 0 0 0 0.888032 0 0 0 1 0"/>
<feBlend mode="normal" in2="BackgroundImageFix" result="effect1_dropShadow"/>
<feBlend mode="normal" in="SourceGraphic" in2="effect1_dropShadow" result="shape"/>
</filter>
</defs>
</svg>
