<svg width="109" height="114" viewBox="0 0 109 114" fill="none" xmlns="http://www.w3.org/2000/svg">
<path d="M98.9177 0C96.2016 0 93.856 0.995851 91.9218 2.94606C89.9877 4.89627 89 7.26141 89 10C89 12.7386 89.9877 15.1037 91.9218 17.0539C93.856 19.0041 96.2016 20 98.9177 20C101.675 20 104.062 19.0041 106.037 17.0539C108.012 15.1037 109 12.7386 109 10C109 7.26141 108.012 4.89627 106.037 2.94606C104.062 0.995851 101.675 0 98.9177 0ZM102.374 13.2365C101.428 14.1494 100.235 14.6058 98.9177 14.6058C97.6008 14.6058 96.4897 14.1494 95.5844 13.2365C94.6379 12.3237 94.1852 11.2448 94.1852 10C94.1852 8.75519 94.6379 7.67635 95.5844 6.76349C96.5309 5.85062 97.642 5.39419 98.9177 5.39419C100.276 5.39419 101.428 5.85062 102.374 6.76349C103.321 7.67635 103.815 8.75519 103.815 10C103.815 11.2448 103.362 12.3237 102.374 13.2365Z" fill="#D8E8E8"/>
<path d="M91.5325 97.9825C90.2097 98.3365 88.4414 98.7229 86.5757 98.9204C86.7618 99.014 86.9615 99.1025 87.1953 99.1791C91.3499 100.56 95.0248 102.793 97.8275 105.641C98.9029 106.733 99.2733 108.31 98.7936 109.753C98.3225 111.174 97.1021 112.199 95.6137 112.429C91.8244 113.016 85.3911 113.716 76.2576 113.716C68.1498 113.716 61.324 112.975 57.0226 112.356C55.5189 112.14 54.2848 111.111 53.8034 109.676C53.7727 109.588 53.7761 109.494 53.7522 109.404C53.2077 110.589 52.1682 111.469 50.8522 111.736C45.7554 112.769 37.4804 114 27.0018 114C16.2979 114 8.20044 112.79 3.29143 111.774C1.73133 111.45 0.519438 110.294 0.128561 108.754C-0.262317 107.213 0.253163 105.622 1.47018 104.597C5.09561 101.554 9.9739 99.4923 15.9668 98.4693C15.948 98.4489 16.3355 98.0999 16.5301 97.5076C16.7127 96.951 16.6547 96.3739 16.3577 95.7952C16.3474 95.7748 16.3491 95.7509 16.3389 95.7288C16.3218 95.7135 16.3065 95.7016 16.2894 95.6862C16.1204 95.5331 15.9839 95.3509 15.8883 95.145C15.7705 94.893 13.1692 89.3116 12.664 85.0612C10.1719 82.9795 10.0336 78.484 10.0336 77.5223C10.0336 76.2491 10.6584 75.3009 11.2507 74.6422C11.1039 74.4005 10.9622 74.2252 10.8239 74.0533C10.5252 73.6822 10.1548 73.2209 9.9722 72.4668C8.35918 65.8198 11.278 60.7746 18.6449 57.4706C19.2252 57.2119 20.5873 56.5991 21.9563 57.2493C22.0553 57.2953 22.1509 57.3481 22.243 57.4042C22.6834 56.9804 23.1921 56.6263 23.7622 56.3472C26.3396 55.0825 30.1511 55.3293 35.0823 57.0757C36.0432 57.4179 36.9206 57.857 37.7535 58.3421C38.4397 58.1906 39.1327 58.0409 39.865 57.9149C39.8445 57.8945 40.2319 57.5455 40.4265 56.9549C40.6092 56.3983 40.5511 55.8212 40.2541 55.2425C40.2439 55.2203 40.2456 55.1965 40.2354 55.1761C40.2183 55.1608 40.2029 55.1471 40.1859 55.1335C40.0169 54.9803 39.8803 54.7965 39.7847 54.5922C39.667 54.3403 37.0657 48.7589 36.5604 44.5068C34.0684 42.4268 33.9301 37.9296 33.9301 36.9696C33.9301 35.6946 34.5548 34.7465 35.1471 34.0895C35.0003 33.8461 34.8587 33.6707 34.7204 33.4988C34.4217 33.1278 34.0513 32.6665 33.8687 31.9141C32.2574 25.2654 35.1744 20.2201 42.5414 16.9179C43.1217 16.6575 44.4838 16.0464 45.8527 16.6949C45.9517 16.7426 46.0473 16.7936 46.1378 16.8498C46.5782 16.4277 47.0868 16.0719 47.6586 15.7928C50.2343 14.5331 54.0407 14.7732 58.9787 16.523C65.3591 18.7818 69.0084 24.4109 68.2762 30.8656C68.0628 32.738 67.5695 33.7473 67.2759 34.3516C67.2213 34.464 67.1701 34.5576 67.1377 34.6495C67.1342 34.6682 67.1308 34.6852 67.1274 34.704C67.5337 35.298 67.8597 36.047 67.8597 36.9696C67.8597 38.2905 67.6548 42.437 65.2311 44.4898C64.7309 48.7418 62.1331 54.3386 62.0136 54.5905C61.9333 54.7625 61.8258 54.9191 61.6927 55.0552C61.6517 55.0961 61.6005 55.1369 61.5595 55.1778C60.9741 56.548 61.7422 57.6817 62.0426 57.9336C63.3159 58.1294 64.5381 58.3966 65.7192 58.6945C68.7746 57.0689 72.3727 56.1446 76.2576 56.1446C85.922 56.1446 93.801 62.0291 95.8629 70.7868C96.5184 73.5664 96.5337 76.0823 96.5491 78.5164C96.5661 81.3011 96.5832 83.9327 97.5476 86.8468C98.2952 89.1124 98.0716 91.618 96.9331 93.7202C95.781 95.8446 93.8641 97.3595 91.5325 97.9825ZM86.6815 74.4822C86.7174 74.3784 86.7515 74.2694 86.7908 74.1503C86.5621 74.0907 86.3265 74.0107 86.0893 73.9035C85.0156 73.4166 84.1383 72.5128 83.4658 71.2021C76.8191 76.3052 69.8619 75.8082 65.9599 74.9112C65.9719 74.9435 65.9821 74.9741 65.994 75.0065C66.2415 75.6516 66.0708 76.3801 65.5656 76.8516C65.1133 77.4406 64.6234 80.6083 66.0982 82.2986C66.3491 82.588 66.4959 82.9505 66.5163 83.3335C66.6563 86.1813 68.2164 89.3388 69.6997 91.2044C72.1388 94.2683 74.2827 94.6888 76.2354 94.6888C78.6592 94.6888 81.2297 93.3389 82.783 91.2487C84.2543 89.269 85.8776 86.1506 86.0159 83.3335C86.0329 82.9625 86.1746 82.6067 86.4119 82.3224C87.8542 80.6083 87.3882 77.427 86.9137 76.8006C86.4938 76.4023 86.3453 75.861 86.4528 75.2941C86.5006 75.049 86.5791 74.7937 86.6815 74.4822ZM68.8138 101.05C69.8755 102.127 72.5109 103.533 76.3293 103.533C80.0639 103.533 82.5679 102.224 83.7303 101.069C82.3682 99.8583 81.8988 98.2361 81.7913 96.551C80.0759 97.5297 78.1539 98.0931 76.2354 98.0931C74.1837 98.0931 72.3744 97.6046 70.7204 96.6293C70.6129 98.2736 70.1469 99.8583 68.8138 101.05ZM57.0397 108.597C57.0909 108.752 57.2155 108.945 57.5125 108.987C61.6995 109.591 68.353 110.311 76.2576 110.311C85.1727 110.311 91.4199 109.634 95.0897 109.065C95.3833 109.021 95.5028 108.832 95.554 108.682C95.5898 108.572 95.6478 108.286 95.3918 108.025C93.1251 105.722 90.1585 103.901 86.8079 102.682C85.0958 104.97 81.3885 106.936 76.3293 106.936C71.2973 106.936 67.4261 104.931 65.7738 102.655C62.4318 103.862 59.4686 105.668 57.1984 107.949C56.9441 108.204 57.0038 108.487 57.0397 108.597ZM52.7315 104.584C53.3835 105.145 53.8068 105.875 54.0134 106.665C54.2063 106.264 54.4469 105.881 54.7747 105.552C57.5637 102.749 61.2096 100.546 65.3198 99.1791C65.6168 99.0804 65.8643 98.9698 66.0862 98.8489C64.4578 98.6344 62.7134 98.2736 60.9092 97.7442C58.6322 97.0769 56.7649 95.5603 55.6537 93.4717C54.5271 91.361 54.3121 88.9371 55.0443 86.6477C55.9865 83.708 55.9695 81.0458 55.9524 78.2253C55.9422 76.5112 55.9336 74.7511 56.1367 72.8805C54.394 72.9485 52.6462 73.02 50.8983 73.02C48.6179 73.02 46.3631 72.9298 44.1339 72.8175C43.8949 73.8235 43.5894 74.4754 43.3794 74.9043C43.3248 75.0184 43.2736 75.1103 43.2412 75.2022C43.2378 75.221 43.2344 75.238 43.2309 75.2567C43.6372 75.8508 43.9632 76.6014 43.9632 77.5223C43.9632 78.8449 43.7584 82.9914 41.3346 85.0425C40.8345 89.2963 38.2366 94.8913 38.1171 95.1433C38.0369 95.3152 37.9293 95.4718 37.7962 95.608C37.7552 95.6505 37.704 95.6897 37.6631 95.7305C37.0759 97.1008 37.8457 98.2344 38.1461 98.4863C44.1953 99.414 49.1026 101.463 52.7315 104.584ZM16.5454 101.824C11.1568 102.743 6.82469 104.553 3.67206 107.201C3.37336 107.452 3.39725 107.76 3.43822 107.92C3.47919 108.08 3.60379 108.362 3.98443 108.442C8.73641 109.425 16.5864 110.596 27.0018 110.596C37.1971 110.596 45.2297 109.402 50.1729 108.4C50.5552 108.323 50.6849 108.041 50.7276 107.879C50.7686 107.719 50.7942 107.414 50.5006 107.162C47.3394 104.442 42.9596 102.648 37.4856 101.829C36.4648 101.678 35.4527 100.857 34.7767 99.637C34.5582 99.2421 34.3927 98.8285 34.2698 98.4063C31.9774 99.8838 29.6543 100.903 28.8487 100.903C28.6353 100.903 28.3213 100.827 28.1233 100.75C27.9594 100.686 27.6214 100.553 27.1725 100.553C26.7748 100.553 26.4949 100.67 26.3447 100.733C26.1347 100.82 25.807 100.903 25.58 100.903C24.136 100.903 22.0604 99.9945 19.7834 98.4421C19.6895 98.7451 19.6025 99.0481 19.4557 99.3408C18.7917 100.66 17.6481 101.635 16.5454 101.824ZM15.0604 82.588C15.6118 82.8637 15.9702 83.4152 15.9992 84.0297C16.1341 86.8877 17.9741 91.487 18.8378 93.3917C22.0092 96.1969 24.3937 97.2897 25.3342 97.4718C25.7387 97.3254 26.3703 97.1484 27.1725 97.1484C27.9014 97.1484 28.4988 97.288 28.9084 97.4157C30.0401 96.9782 33.0971 95.4445 35.1437 93.4411C35.6797 92.2444 37.8457 87.2332 37.9959 84.0297C38.0232 83.434 38.3612 82.8978 38.8852 82.6135C39.9657 82.0297 40.5494 79.5547 40.5494 77.5223C40.5494 77.2176 40.0954 76.7887 39.7643 76.4755L39.4826 76.2048C39.0866 75.8082 38.9142 75.2431 39.0149 74.695C39.1566 73.9494 39.6123 73.369 40.2729 73.1017C40.2849 73.0966 40.2951 73.0949 40.307 73.0898C40.3036 73.066 40.3019 73.0302 40.2985 73.0234C39.6294 72.3936 35.5602 72.9945 33.1279 73.3554C30.1545 73.7962 27.0735 74.2524 24.5183 73.9784C23.0914 73.8286 19.6093 73.2379 18.1277 71.0438C18.0355 70.9076 17.9553 70.768 17.8836 70.6251C16.8749 70.9349 15.5708 71.5068 14.789 72.2881C14.4903 72.586 14.3521 72.8634 14.3043 73.1256C14.4989 73.4745 14.7003 73.8779 14.9017 74.409C15.1338 75.0303 14.9836 75.7316 14.5142 76.2048L14.2326 76.4755C13.9015 76.7887 13.4474 77.2176 13.4474 77.5223C13.4474 79.616 14.0517 82.0824 15.0604 82.588ZM33.9386 60.2843C28.6507 58.4102 26.2337 58.926 25.2659 59.4026C24.602 59.7277 24.1769 60.2282 23.9294 60.9822C23.699 61.6835 23.0436 62.155 22.3062 62.155C22.2925 62.155 22.2772 62.155 22.2601 62.1533C21.5074 62.1329 20.8553 61.6222 20.659 60.8937C20.5942 60.6554 20.531 60.5005 20.4832 60.4018C20.3893 60.4324 20.2494 60.4835 20.0446 60.5754C15.1116 62.7865 12.8824 65.5577 12.9917 69.3501C14.9802 67.7671 17.9878 66.8701 19.3942 66.9671C19.9114 66.9977 20.3876 67.2616 20.6881 67.682C20.9868 68.1041 21.0789 68.6386 20.9356 69.1357C21.0448 69.4216 22.342 70.3255 24.8785 70.5961C27.007 70.8225 29.8643 70.397 32.626 69.9884C36.0808 69.4778 38.9876 69.0488 41.0171 69.6616C40.9693 64.6385 37.4651 61.532 33.9386 60.2843ZM57.8351 19.7316C52.5455 17.8575 50.1302 18.3733 49.1624 18.8482C48.4967 19.1733 48.0734 19.6754 47.8259 20.4295C47.5955 21.1291 46.94 21.6006 46.2026 21.6006C46.189 21.6006 46.1736 21.6006 46.1566 21.5989C45.4038 21.5802 44.7518 21.0678 44.5555 20.341C44.4906 20.1027 44.4275 19.9461 44.3797 19.8473C44.2858 19.878 44.1458 19.9291 43.941 20.0227C39.0081 22.2321 36.7789 25.005 36.8881 28.7957C38.875 27.2127 41.8825 26.3156 43.2907 26.4144C43.8096 26.445 44.2841 26.7088 44.5845 27.131C44.8832 27.5514 44.9754 28.0859 44.832 28.5829C44.9413 28.8689 46.2385 29.7728 48.7749 30.0434C50.9017 30.2698 53.7573 29.846 56.5225 29.4357C59.9738 28.9251 62.8824 28.4927 64.9136 29.1072C64.8658 24.0858 61.3615 20.9793 57.8351 19.7316ZM61.8924 43.4753C61.9197 42.8812 62.2577 42.3434 62.7817 42.0591C63.8621 41.4752 64.4459 39.0003 64.4459 36.9696C64.4459 36.6649 63.9901 36.2342 63.659 35.921L63.3791 35.6504C62.9831 35.2538 62.8107 34.6904 62.9114 34.1406C63.0531 33.395 63.5088 32.8146 64.1677 32.549C64.1796 32.5439 64.1916 32.5405 64.2035 32.5354C64.2018 32.5133 64.1984 32.4775 64.1967 32.469C63.5276 31.8392 59.4567 32.4418 57.0226 32.8026C54.0475 33.2418 50.97 33.698 48.4148 33.4273C46.9861 33.2741 43.5058 32.6852 42.0242 30.4894C41.932 30.3549 41.8518 30.2153 41.7801 30.0723C40.7713 30.3804 39.4673 30.9524 38.6855 31.7337C38.3868 32.0315 38.2485 32.309 38.2007 32.5728C38.3953 32.9218 38.5967 33.3235 38.7982 33.8546C39.0303 34.4776 38.8801 35.1789 38.4107 35.6504L38.1308 35.921C37.7996 36.2342 37.3439 36.6649 37.3439 36.9696C37.3439 39.0616 37.9481 41.528 38.9569 42.0336C39.5065 42.311 39.8667 42.8608 39.8957 43.4753C40.0305 46.3333 41.8706 50.9325 42.7342 52.839C45.9056 55.6442 48.2919 56.737 49.2324 56.9191C49.6352 56.7727 50.2668 56.5957 51.069 56.5957C51.7978 56.5957 52.3935 56.7353 52.8032 56.8629C53.9366 56.4255 56.9936 54.8918 59.0402 52.8884C59.5761 51.6917 61.7422 46.6805 61.8924 43.4753ZM61.382 61.275C60.3613 61.1235 59.3474 60.303 58.6732 59.0843C58.4547 58.6894 58.2891 58.2758 58.1662 57.8519C55.8739 59.3311 53.5508 60.349 52.7452 60.349C52.5318 60.349 52.2194 60.2741 52.0197 60.1958C51.8576 60.1328 51.5179 60.0001 51.069 60.0001C50.6696 60.0001 50.3896 60.1175 50.2394 60.1805C50.0295 60.2673 49.7035 60.349 49.4765 60.349C48.0324 60.349 45.9569 59.4417 43.6799 57.8894C43.586 58.1906 43.4989 58.4953 43.3521 58.7864C42.8247 59.8349 41.9952 60.6452 41.1246 61.0384C43.1866 63.3244 44.3541 66.2334 44.4411 69.4284C48.4848 69.6242 52.6683 69.6412 56.7785 69.4574C57.6747 66.3032 59.4498 63.5474 61.8651 61.3754C61.6978 61.3482 61.551 61.3005 61.382 61.275ZM94.3028 87.9124C93.1729 84.4893 93.1524 81.4645 93.1336 78.5368C93.1199 76.1895 93.1063 73.9715 92.5396 71.5647C90.8481 64.3764 84.3038 59.549 76.2576 59.549C67.9245 59.549 61.1516 64.4632 59.7895 71.4983C59.3389 73.8235 59.3525 75.9512 59.3645 78.2049C59.385 81.165 59.4037 84.2289 58.296 87.6809C57.8471 89.0903 57.9785 90.5814 58.6681 91.8751C59.3457 93.1483 60.4842 94.0726 61.8719 94.4794C63.8229 95.0513 65.6834 95.4173 67.3442 95.5756C67.3339 95.0224 67.3066 94.4062 67.252 93.6556L67.2469 93.5739C67.1735 93.4853 67.0984 93.4104 67.0267 93.3202C65.4171 91.2963 63.49 87.715 63.1452 84.057C61.2728 81.4373 61.4127 77.5053 62.5052 75.3724C62.2099 74.4635 62.0904 73.8218 61.9948 73.3213C61.9607 73.1273 61.9265 72.9519 61.8839 72.7766C61.7268 72.1383 61.9521 71.4676 62.4625 71.0523C62.9746 70.6353 63.6744 70.5502 64.2718 70.8327C64.6746 71.0183 74.3407 75.3622 83.0356 67.0896C83.4726 66.6709 84.099 66.5177 84.6811 66.6828C85.2631 66.8496 85.7154 67.3092 85.8674 67.8948C86.4272 70.065 87.1697 70.6404 87.465 70.7868C87.8115 70.9587 88.1256 70.8412 88.1614 70.8276C88.723 70.5978 89.3938 70.6659 89.8734 71.0285C90.3565 71.391 90.6449 71.9664 90.575 72.5638C90.4162 73.9426 90.1773 74.7716 89.9946 75.3367C91.0734 77.4423 91.2219 81.3982 89.3853 84.0416C88.979 88.3277 86.3504 92.1661 85.526 93.2743C85.4423 93.3866 85.3451 93.487 85.258 93.596C85.2034 94.379 85.171 95.036 85.1658 95.6165C86.801 95.5263 88.6906 95.2182 90.6484 94.6956C92.0651 94.3177 93.2275 93.3968 93.929 92.1032C94.6339 90.801 94.7671 89.3133 94.3028 87.9124Z" fill="#D8E8E8"/>
</svg>
