<svg width="22" height="17" viewBox="0 0 22 17" fill="none" xmlns="http://www.w3.org/2000/svg">
<path fill-rule="evenodd" clip-rule="evenodd" d="M11.9772 2.10014C10.3249 1.79643 8.70768 2.19975 7.43424 3.09623C6.98502 3.41459 6.36002 3.30619 6.04362 2.85502C5.72331 2.40385 5.83268 1.77982 6.2819 1.46147C7.97721 0.268106 10.1374 -0.271933 12.3366 0.13334C16.1217 0.828653 18.7936 4.08061 18.8913 7.77885L20.0983 6.51713C20.2467 6.36186 20.4342 6.26518 20.6296 6.22709C20.7897 6.19682 20.9577 6.20561 21.1139 6.25443C21.2585 6.29838 21.3952 6.3765 21.5124 6.48686C21.9108 6.86967 21.9264 7.50248 21.5436 7.90092L18.7467 10.8199C18.2858 11.2974 17.528 11.314 17.0475 10.855L14.1296 8.05717C13.8991 7.83647 13.7975 7.53275 13.8288 7.23881C13.8483 7.02299 13.9421 6.81303 14.1022 6.64408C14.4811 6.24467 15.1139 6.23197 15.5163 6.61381L16.8913 7.93412C16.8639 5.11967 14.8483 2.62748 11.9772 2.10014ZM4.89127 8.02299L6.32096 9.32475C6.73112 9.69682 7.36002 9.66654 7.73502 9.25834C7.97331 8.99662 8.04752 8.64506 7.96159 8.32768C7.91081 8.14799 7.81315 7.98002 7.66471 7.84525L4.67643 5.12553C4.18424 4.67924 3.42643 4.71537 2.98112 5.20561L0.262368 8.19584C-0.112632 8.60502 -0.0813816 9.23686 0.328775 9.60893C0.735025 9.98002 1.36784 9.95072 1.73893 9.54154L2.7194 8.46342L2.89518 8.25736C3.00846 11.9419 5.67643 15.1763 9.44596 15.8697C11.6491 16.274 13.8053 15.7349 15.5006 14.5406C15.9499 14.2222 16.0592 13.5982 15.7428 13.147C15.4225 12.6958 14.8014 12.5874 14.3483 12.9058C13.0749 13.8033 11.4577 14.2056 9.80924 13.9019C6.91862 13.3716 4.89909 10.857 4.89127 8.02299Z" fill="black"/>
</svg>
