<svg width="100" height="100" viewBox="0 0 100 100" fill="none" xmlns="http://www.w3.org/2000/svg">
<path fill-rule="evenodd" clip-rule="evenodd" d="M22.3057 91.2441C30.2891 96.7637 39.9493 100 50.3614 100C77.7754 100 99.9991 77.6143 99.9991 50C99.9991 22.3857 77.7754 0 50.3614 0C22.9473 0 0.723676 22.3848 0.723676 50C0.723676 57.8086 2.50297 65.1982 5.67192 71.7832L0.257855 88.8975C-0.679645 91.8271 1.01957 93.8926 4.0518 93.5059L22.3057 91.2441ZM29.127 58.2002C32.8086 58.2002 35.793 55.2158 35.793 51.5342C35.793 47.8516 32.8086 44.8672 29.127 44.8672C25.4444 44.8672 22.46 47.8516 22.46 51.5342C22.46 55.2158 25.4444 58.2002 29.127 58.2002ZM55.793 51.5342C55.793 55.2158 52.8086 58.2002 49.127 58.2002C45.4444 58.2002 42.46 55.2158 42.46 51.5342C42.46 47.8516 45.4444 44.8672 49.127 44.8672C52.8086 44.8672 55.793 47.8516 55.793 51.5342ZM69.127 58.2002C72.8086 58.2002 75.793 55.2158 75.793 51.5342C75.793 47.8516 72.8086 44.8672 69.127 44.8672C65.4444 44.8672 62.46 47.8516 62.46 51.5342C62.46 55.2158 65.4444 58.2002 69.127 58.2002Z" fill="white"/>
</svg>
