<svg width="18" height="18" viewBox="0 0 18 18" fill="none" xmlns="http://www.w3.org/2000/svg">
<path fill-rule="evenodd" clip-rule="evenodd" d="M17.9948 0.980167L14.8061 17.4424C14.7923 17.4667 14.768 17.5189 14.7023 17.571C14.633 17.6267 14.5776 17.6614 14.2903 17.5467L9.49269 13.8527C9.24429 13.6615 8.89054 13.6937 8.68077 13.9266L6.70424 16.1218C6.55641 16.2859 6.30349 16.2991 6.13932 16.1513C6.03969 16.0616 5.99161 15.928 6.0113 15.7954L6.55305 12.1475C8.987 9.79436 11.4209 7.44125 13.8549 5.08814C13.974 4.97298 13.9772 4.78306 13.862 4.66394C13.762 4.56048 13.6026 4.54264 13.4822 4.6214L4.21891 10.6791L0.444012 9.19458C0.084232 9.0531 -0.0927357 8.64677 0.0487483 8.28699C0.117652 8.11178 0.254236 7.97168 0.427655 7.89838L17.5835 0.646793C17.7361 0.582286 17.9121 0.653727 17.9766 0.806339C17.9998 0.861198 18.0061 0.921696 17.9948 0.980167Z" fill="black"/>
</svg>
