<svg width="20" height="18" viewBox="0 0 20 18" fill="none" xmlns="http://www.w3.org/2000/svg">
<path fill-rule="evenodd" clip-rule="evenodd" d="M19.4484 0.92777C18.6548 1.41329 17.778 1.7664 16.8408 1.95533C16.0943 1.13178 15.0274 0.617188 13.8462 0.617188C11.582 0.617188 9.74448 2.51621 9.74448 4.85823C9.74448 5.19088 9.77972 5.51331 9.85021 5.82389C6.44007 5.6468 3.41708 3.96039 1.39214 1.39122C1.03864 2.01992 0.836782 2.74928 0.836782 3.52601C0.836782 4.99657 1.56089 6.29488 2.66254 7.05546C1.99076 7.035 1.3569 6.8423 0.802606 6.52687V6.57855C0.802606 8.63421 2.21718 10.3491 4.0958 10.7372C3.7519 10.8368 3.38878 10.8869 3.01444 10.8869C2.75011 10.8869 2.49219 10.861 2.24228 10.8115C2.76453 12.4958 4.27896 13.7225 6.07481 13.7553C4.67092 14.8932 2.9007 15.5715 0.978827 15.5715C0.647745 15.5715 0.320402 15.5521 0 15.5133C1.81561 16.7147 3.97351 17.4172 6.29002 17.4172C13.8381 17.4172 17.9644 10.9558 17.9644 5.35075C17.9644 5.16612 17.9612 4.98203 17.9542 4.80117C18.7558 4.20315 19.4521 3.45657 20 2.6061C19.2652 2.94306 18.4738 3.17129 17.644 3.27356C18.4914 2.74928 19.1419 1.91819 19.4484 0.92777Z" fill="black"/>
</svg>
