<svg width="22" height="14" viewBox="0 0 22 14" fill="none" xmlns="http://www.w3.org/2000/svg">
<path d="M18.9341 8.88904C19.6639 9.63301 20.4342 10.333 21.0887 11.152C21.3778 11.5159 21.6515 11.8915 21.8609 12.3138C22.1576 12.9143 21.8889 13.575 21.3733 13.6108L18.1683 13.6093C17.3417 13.6809 16.6822 13.3334 16.1277 12.7433C15.684 12.2713 15.2731 11.7691 14.8464 11.2812C14.6715 11.0818 14.4884 10.8942 14.2696 10.7458C13.8321 10.4493 13.4524 10.5401 13.2023 11.0165C12.9477 11.5012 12.8899 12.0378 12.8649 12.5779C12.8306 13.366 12.6025 13.5732 11.8444 13.6093C10.2242 13.689 8.68658 13.4331 7.2582 12.5797C5.99889 11.8273 5.02236 10.7652 4.17239 9.56281C2.51747 7.22146 1.25014 4.64874 0.111109 2.00391C-0.145278 1.40802 0.0422139 1.0881 0.67187 1.07678C1.71744 1.05557 2.76286 1.05713 3.80966 1.07532C4.23461 1.08181 4.51594 1.3363 4.68002 1.75549C5.2457 3.20788 5.93789 4.58972 6.80673 5.87054C7.03811 6.21155 7.27404 6.55253 7.61001 6.79254C7.98169 7.05829 8.26469 6.97023 8.43954 6.5379C8.55049 6.26377 8.59907 5.96847 8.62408 5.67487C8.70692 4.66477 8.71782 3.65645 8.57254 2.6499C8.48334 2.02172 8.14446 1.61503 7.54415 1.49615C7.23782 1.43555 7.28343 1.31655 7.43176 1.13397C7.68937 0.819085 7.93167 0.623047 8.41467 0.623047H12.0368C12.6071 0.740563 12.7337 1.00805 12.8118 1.60718L12.8149 5.80841C12.8087 6.04035 12.9258 6.72862 13.3259 6.88214C13.6461 6.99143 13.8572 6.72392 14.0493 6.5119C14.9166 5.55079 15.5355 4.41498 16.0885 3.23883C16.3339 2.72167 16.5449 2.18458 16.7494 1.64795C16.9009 1.24974 17.1386 1.05376 17.5682 1.06244L21.0543 1.06573C21.1577 1.06573 21.2623 1.06732 21.3624 1.08521C21.9498 1.18974 22.1108 1.45357 21.9294 2.05255C21.6435 2.9923 21.0873 3.77543 20.5434 4.56219C19.962 5.40217 19.3403 6.21339 18.7638 7.05835C18.2341 7.82994 18.2761 8.21889 18.9341 8.88904Z" fill="black"/>
</svg>
